<svg xmlns="http://www.w3.org/2000/svg" viewBox="0 0 100 100">
  <title>Animal Face glyph</title>
  <g id="Layer_27" data-name="Layer 27">
    <g>
      <path d="M32.99,27.42a2.5,2.5,0,1,0,2.5,2.49A2.5,2.5,0,0,0,32.99,27.42Z"/>
      <path d="M87.98,53.25c-.19-6.63-3.58-12.99-9.62-17.96a1.247,1.247,0,0,1-.37-1.39,11.68,11.68,0,0,0-21.76-8.48,1.25,1.25,0,0,1-1.28.76,51.166,51.166,0,0,0-9.9,0,1.25,1.25,0,0,1-1.28-.76A11.681,11.681,0,0,0,22.01,33.9a1.247,1.247,0,0,1-.37,1.39C15.42,40.41,12,47.01,12,53.85a20.051,20.051,0,0,0,.16,2.46c7.79,5.37,21.55,8.7,36.12,8.7C65.79,65.01,81.63,60.3,87.98,53.25ZM67.01,22.91a7.005,7.005,0,1,1-7.01,7A7.008,7.008,0,0,1,67.01,22.91ZM51.667,52.265a1.25,1.25,0,0,1,2.5,0v1.44a1.25,1.25,0,0,1-2.5,0ZM32.99,36.92A7.005,7.005,0,1,1,40,29.91,7.01,7.01,0,0,1,32.99,36.92ZM47.083,54.955a1.25,1.25,0,0,1-1.25-1.25v-1.44a1.25,1.25,0,0,1,2.5,0v1.44A1.25,1.25,0,0,1,47.083,54.955Z"/>
      <path d="M67.01,32.41a2.5,2.5,0,1,0-2.5-2.5A2.5,2.5,0,0,0,67.01,32.41Z"/>
      <path d="M12.85,59.7C16.52,72.29,31.78,81.77,50,81.77c19.56,0,35.7-10.91,37.77-24.88C80.03,63.41,65.1,67.51,48.28,67.51,34.23,67.51,21.29,64.62,12.85,59.7Z"/>
    </g>
  </g>
</svg>
